<?xml version="1.0" encoding="UTF-8" standalone="no"?>
<!-- Generator: Adobe Illustrator 19.1.0, SVG Export Plug-In . SVG Version: 6.00 Build 0)  -->

<svg
   xmlns:dc="http://purl.org/dc/elements/1.1/"
   xmlns:cc="http://creativecommons.org/ns#"
   xmlns:rdf="http://www.w3.org/1999/02/22-rdf-syntax-ns#"
   xmlns:svg="http://www.w3.org/2000/svg"
   xmlns="http://www.w3.org/2000/svg"
   xmlns:sodipodi="http://sodipodi.sourceforge.net/DTD/sodipodi-0.dtd"
   xmlns:inkscape="http://www.inkscape.org/namespaces/inkscape"
   version="1.1"
   x="0px"
   y="0px"
   width="24px"
   height="24px"
   viewBox="0 0 24 24"
   enable-background="new 0 0 24 24"
   xml:space="preserve"
   id="svg10"
   sodipodi:docname="iconNotFound.svg"
   inkscape:version="0.92.3 (2405546, 2018-03-11)"><metadata
   id="metadata16"><rdf:RDF><cc:Work
       rdf:about=""><dc:format>image/svg+xml</dc:format><dc:type
         rdf:resource="http://purl.org/dc/dcmitype/StillImage" /><dc:title></dc:title></cc:Work></rdf:RDF></metadata><defs
   id="defs14">
	
	
</defs><sodipodi:namedview
   pagecolor="#ffffff"
   bordercolor="#666666"
   borderopacity="1"
   objecttolerance="10"
   gridtolerance="10"
   guidetolerance="10"
   inkscape:pageopacity="0"
   inkscape:pageshadow="2"
   inkscape:window-width="1920"
   inkscape:window-height="1027"
   id="namedview12"
   showgrid="false"
   inkscape:zoom="19.666667"
   inkscape:cx="12"
   inkscape:cy="12"
   inkscape:window-x="1912"
   inkscape:window-y="-8"
   inkscape:window-maximized="1"
   inkscape:current-layer="svg10" />
<path
   style="opacity:1;fill:#373737;fill-opacity:1;stroke:none;stroke-width:103.09999847;stroke-linecap:round;stroke-linejoin:miter;stroke-miterlimit:4;stroke-dasharray:none;stroke-opacity:1"
   d="M 0 0 L 0 24 L 24 24 L 24 0 L 0 0 z M 11 7.25 L 13 7.25 C 13.55 7.25 14 7.7 14 8.25 L 14 9.25 L 17 9.25 L 17 16.75 L 7 16.75 L 7 9.25 L 10 9.25 L 10 8.25 C 10 7.7 10.45 7.25 11 7.25 z M 11 8.25 L 11 9.25 L 13 9.25 L 13 8.25 L 11 8.25 z "
   id="rect4526" /><g
   id="Bounding_Boxes">
	<g
   id="ui_x5F_spec_x5F_header_copy_3">
	</g>
	<path
   fill="none"
   d="M0,0h24v24H0V0z"
   id="path3" />
</g>
<g
   id="ui_x5F_spec_x5F_header_copy_4"
   transform="translate(0,0.5)">
	</g>
</svg>