<svg version="1" xmlns="http://www.w3.org/2000/svg" width="933.333" height="933.333" viewBox="0 0 700.000000 700.000000"><path d="M264 49.5c-47 27.2-86.4 50-87.5 50.7-1.1.6-8.7 5.1-17 9.9-27 15.5-79.7 46-96 55.4l-16 9.2-.3 122.4c-.2 103.3 0 122 1.2 120.4 1-1.6 21.2-36.4 29.8-51.5 1.1-1.9 3.7-6.4 5.8-10 2.1-3.6 4.7-8.2 5.9-10.3 1.2-2.1 6.2-10.9 11.2-19.5 5-8.6 10.8-18.6 12.9-22.2 2-3.6 6-10.3 8.7-15 2.7-4.7 10.7-18.5 17.7-30.7l12.8-22.2 20.5-11.8c11.3-6.5 22.6-13 25.2-14.6 2.5-1.5 5.5-3.2 6.6-3.7 1.1-.6 3.6-2 5.5-3.1 3.5-2.1 94.6-54.8 122.8-71.1 8.5-4.8 15.8-8.8 16.2-8.8.5 0 21.8 12.1 47.6 27 25.7 14.8 47.1 27 47.5 27 .5 0 .9.4.9.9s.6 1.1 1.3 1.3c1 .2 20.1 11 33.5 18.9 1.5.9 5.3 3 8.5 4.8l5.7 3.2-3.8-6.3c-2.1-3.5-7.3-12.4-11.6-19.8-4.2-7.4-8.1-14.2-8.6-15-.5-.8-5-8.7-10.1-17.5-5-8.8-10.8-18.9-12.9-22.5-5.6-9.6-28.9-49.8-31.7-54.8-1.3-2.3-5.3-9.3-8.9-15.4-3.5-6.1-6.4-11.2-6.4-11.5 0-.2-1.6-2.8-3.5-5.8s-4.5-7.6-5.9-10.2c-2.2-4.5-3.4-5.4-18.1-13.8-8.7-5-17.5-10-19.7-11.3-2.1-1.2-4-2.2-4.1-2.1-.1 0-38.7 22.3-85.7 49.4z"/><path d="M450.2 68.7c5 8.7 9.9 17.1 10.8 18.8.9 1.6 12 20.8 24.5 42.5 12.6 21.7 31.5 54.6 42.2 73l19.3 33.5V350c0 111.1 0 113.5-1.9 114.7-1.8 1.1-29.5 17.2-38.1 22.1-1.9 1.1-9.1 5.2-16 9.3-6.9 4-15.2 8.8-18.5 10.6-3.3 1.9-6.7 3.8-7.5 4.3-3.8 2.5-36.2 21-36.7 21-.4 0-1.4.6-2.2 1.4-.9.7-4.5 3-8.2 4.9-12.4 6.8-15.1 8.5-14.2 8.9.4.2 48.1.4 105.8.3l105-.1 19-11.1 19-11.1V174.8l-14.5-8.5c-8-4.7-16.5-9.6-19-11-2.5-1.3-5.9-3.2-7.5-4.2-3.1-1.8-40.3-23.3-46.5-26.9-1.9-1.1-11.6-6.7-21.5-12.4S513.1 94.2 498 85.5c-15.1-8.7-30.8-17.8-34.8-20.2-4.1-2.3-7.5-4.3-7.7-4.3-.2 0-3.3-1.8-6.9-4-3.6-2.2-6.8-4-7-4-.3 0 3.6 7.1 8.6 15.7zM289 282.7V306l10.3.1c5.6 0 13.2 0 17-.1l6.7-.1V394h-34v46.6l60.8-.1h60.7l.3-23.3.2-23.2h-34l.3-43.8.2-43.7 16.8-.3 16.7-.2v-46.6H289v23.3z"/><path d="M149.9 301.6c-1.4 2.7-8.4 15-15.6 27.4-7.2 12.4-29.7 51.5-50.2 86.8L47 480.2l.2 22.6.3 22.5 3.1 1.7c1.6 1 17.6 10.2 35.5 20.5 17.8 10.3 41 23.7 51.4 29.7 10.5 6.1 21.9 12.7 25.5 14.8 3.6 2.1 26.9 15.6 51.9 30s46.8 27.1 48.5 28.1c1.7 1 4.7 2.7 6.6 3.8 1.9 1 19.3 11 38.5 22.1 19.3 11.1 36.5 21.1 38.3 22.1l3.2 1.9 22.8-13.1c39.7-23 46.5-26.9 47.1-26.9.2 0 1.2-.6 2-1.4.9-.7 4.1-2.7 7.1-4.3 3-1.7 9.8-5.5 15-8.5 5.2-3.1 11.4-6.6 13.6-7.9 5.6-3.2 39.8-23 43.2-25 1.5-.9 4.7-2.7 7.2-4.1 21-11.9 50.7-29.3 51.7-30.2.9-.8-25.6-1.1-104.2-1.1H350l-18.7-10.9c-10.4-6-20.1-11.6-21.8-12.6-1.6-.9-8.8-5.1-16-9.2-7.1-4.1-22.2-12.8-33.5-19.3s-21.7-12.6-23.2-13.6c-1.4-1.1-2.9-1.9-3.3-1.9-.4 0-4.8-2.4-9.9-5.4-5-3-22.8-13.4-39.6-23.1l-30.5-17.6-.5-83.6-.5-83.6-2.6 4.9z"/></svg>