<?xml version="1.0" encoding="UTF-8"?>
<svg xmlns="http://www.w3.org/2000/svg" width="1662" height="1920" viewBox="0 0 1662 1920" fill="#fff">
  <path d="m0 1440 461.9 266.8 120.3 69.5 142.7 82.4v0l106.2 61.3 0 0 300.4-173.5 0 0 281.3-162.5-581.7 0-96.2-55.6-301.1-174-142.7-82.4v-198.5 0L291 812.7 0 1316.7v18.2 105.1zm0-288 291-504 79.8-46.1 317.6-183.5 142.5-82.4v0L1228.3 565.6 937.2 61.3 901.5 40.7 831 0 831 0 249.3 336 106.7 418.4v0L0 480v0 362.1zm973.5 349.6 581.5 0 0 0.2 107-61.8v0-672l0-164.7 0-123.3 0 0-284.5-164.3-297.6-171.9 291.1 504.3V1107.3l0 0v164.7l0 0-184.8 106.8z"/> <path d="m663.3 711.5v128.2h93.1v240.8h-93.1v128h93.1 149.2 93.1v-128h-93.1V839.7h93.1v-128.2h-93.1-149.2z" fill="#fff"/>
</svg>